<svg xmlns="http://www.w3.org/2000/svg" width="512" height="512" viewBox="0 0 512 512">
  <defs>
    <path id="pet" d="M0,-10 C9,-24 9,-46 0,-58 C-9,-46 -9,-24 0,-10 Z"/>
    <g id="fl">
      <use href="#pet" transform="rotate(0)"/>
      <use href="#pet" transform="rotate(45)"/>
      <use href="#pet" transform="rotate(90)"/>
      <use href="#pet" transform="rotate(135)"/>
      <use href="#pet" transform="rotate(180)"/>
      <use href="#pet" transform="rotate(225)"/>
      <use href="#pet" transform="rotate(270)"/>
      <use href="#pet" transform="rotate(315)"/>
      <circle r="11" fill="rgba(150,90,190,0.10)" stroke="rgba(170,110,205,0.55)"/>
      <circle r="4.5" fill="rgba(190,140,220,0.50)" stroke="none"/>
    </g>
    <path id="vine" d="M0,-50 C-16,-104 16,-168 0,-226"/>
    <path id="cvine" d="M36,-36 C92,-92 140,-140 196,-196"/>
    <g id="lattice">
      <use href="#vine" transform="rotate(0)"/>
      <use href="#vine" transform="rotate(90)"/>
      <use href="#vine" transform="rotate(180)"/>
      <use href="#vine" transform="rotate(270)"/>
      <use href="#cvine" transform="rotate(0)"/>
      <use href="#cvine" transform="rotate(90)"/>
      <use href="#cvine" transform="rotate(180)"/>
      <use href="#cvine" transform="rotate(270)"/>
    </g>
  </defs>
  <g fill="rgba(125,70,165,0.16)" stroke="rgba(165,105,200,0.55)" stroke-width="2" stroke-linecap="round" stroke-linejoin="round">
    <use href="#lattice" transform="translate(256,256)"/>
    <use href="#fl" transform="translate(256,256)"/>
    <use href="#fl" transform="translate(0,0) scale(0.92)"/>
    <use href="#fl" transform="translate(512,0) scale(0.92)"/>
    <use href="#fl" transform="translate(0,512) scale(0.92)"/>
    <use href="#fl" transform="translate(512,512) scale(0.92)"/>
    <use href="#fl" transform="translate(256,0) scale(0.66)"/>
    <use href="#fl" transform="translate(0,256) scale(0.66)"/>
    <use href="#fl" transform="translate(512,256) scale(0.66)"/>
    <use href="#fl" transform="translate(256,512) scale(0.66)"/>
  </g>
</svg>
