<svg xmlns="http://www.w3.org/2000/svg" width="512" height="512" viewBox="0 0 512 512">
  <rect width="512" height="512" fill="none"/>
  <g stroke="rgba(255,255,255,0.10)" stroke-width="2" fill="none" stroke-linecap="round" stroke-linejoin="round">
    <!-- sacred geometry -->
    <circle cx="256" cy="256" r="210" opacity="0.32"/>
    <circle cx="256" cy="256" r="152" opacity="0.30"/>
    <circle cx="256" cy="256" r="92" opacity="0.26"/>
    <circle cx="256" cy="256" r="44" opacity="0.20"/>
    <path d="M256 56l182 316H74z" opacity="0.9"/>
    <path d="M256 456L74 140h364z" opacity="0.9"/>
    <path d="M96 256h320" opacity="0.35"/>
    <path d="M256 96v320" opacity="0.35"/>

    <!-- crown / thorn -->
    <path d="M120 156l20 26 22-26 22 26 22-26 22 26 22-26 22 26 22-26 20 26" />
    <path d="M160 396l18-22 18 22 18-22 18 22 18-22 18 22 18-22 18 22" opacity="0.7"/>
  </g>
</svg>
